<svg width="165" height="230" viewBox="0 0 165 230" fill="none" xmlns="http://www.w3.org/2000/svg">
<g clip-path="url(#clip0_81_420)">
<path fill-rule="evenodd" clip-rule="evenodd" d="M82.5125 0.12793C65.3863 0.12793 45.0811 16.593 28.3323 44.2739C10.8756 72.9418 0.461548 108.432 0.461548 139.252C0.461548 184.371 25.7816 229.872 82.5172 229.872C139.185 229.872 164.573 184.371 164.573 139.252C164.573 108.432 154.164 72.9418 136.791 44.2739C119.885 16.593 99.5824 0.12793 82.5125 0.12793ZM525.592 67.8215H583.031V217.568H644.573V67.8215H701.988V12.4292H525.592V67.8145V67.8215ZM833.277 67.8215H923.538V12.4292H833.277C750.354 12.4292 706.068 53.6587 706.068 114.992C706.068 176.325 750.354 217.568 833.277 217.568H923.538V162.178H833.277C794.899 162.178 769.672 148.461 769.672 114.999C769.672 81.5365 794.899 67.8215 833.277 67.8215ZM400.422 12.4292L367.623 134.868L334.824 12.4292H226.112V217.568H287.631V50.7141L332.339 217.568H402.907L447.639 50.6133V217.568H509.181V12.4292H400.422Z" fill="#E30613"/>
</g>
<defs>
<clipPath id="clip0_81_420">
<rect width="165" height="230" fill="white"/>
</clipPath>
</defs>
</svg>
